<svg version="1.2" xmlns="http://www.w3.org/2000/svg" viewBox="0 0 852 258" width="180" height="55"><style>.a{fill:#fff}</style><path class="a" d="m665.2 81.9v104.2h-17.1v-71.4l-31.8 71.4h-11.9l-32-71.4v71.4h-17.1v-104.2h18.5l36.6 81.7 36.5-81.7z"/><path fill-rule="evenodd" class="a" d="m687.1 122.4c3.5-6.4 8.1-11.4 14.1-14.9 5.9-3.5 12.5-5.3 19.7-5.3 6.5 0 12.2 1.3 17 3.8 4.8 2.5 8.7 5.7 11.6 9.5v-12h17.2v82.7h-17.2v-12.3c-2.9 3.9-6.9 7.2-11.9 9.8q-7.5 3.9-17.1 3.9c-7.1 0-13.6-1.8-19.5-5.5-5.9-3.6-10.6-8.7-14-15.3-3.4-6.5-5.2-14-5.2-22.3 0.2-8.3 1.9-15.7 5.3-22.1zm59 7.5c-2.4-4.2-5.4-7.4-9.2-9.6q-5.7-3.3-12.3-3.3c-4.4 0-8.5 1.1-12.3 3.2-3.8 2.2-6.9 5.3-9.2 9.5-2.4 4.2-3.5 9.1-3.5 14.8 0 5.7 1.2 10.7 3.5 15 2.3 4.3 5.4 7.6 9.3 9.8 3.8 2.2 7.9 3.4 12.2 3.4q6.6 0 12.3-3.3c3.8-2.2 6.9-5.4 9.2-9.7 2.3-4.2 3.5-9.2 3.5-14.9 0-5.7-1.2-10.7-3.5-14.9z"/><path class="a" d="m824.8 144.3l26.7 41.8h-19.3l-17.8-28-16.8 28h-17.8l26.7-40.7-26.7-42h19.2l17.9 28.1 16.8-28.1h17.8z"/><path fill-rule="evenodd" class="a" d="m323.9 75h37.9c23 0 40.9 6.3 40.9 27.5 0 9.9-5.6 20.5-14.6 23.9v0.7c11.3 2.9 20.1 11.3 20.1 26.1 0 22.5-19.1 32.6-43.2 32.6h-41.1zm36.7 44.4c12.2 0 17.5-5.1 17.5-13.2 0-8.5-5.7-11.9-17.4-11.9h-11.9v25zm2.3 47.1c13.7 0 20.7-4.9 20.7-14.9 0-9.7-6.9-13.7-20.7-13.7h-14v28.6z"/><path class="a" d="m422.7 76.1c0-7.7 6.1-13.1 14.5-13.1 8.4 0 14.5 5.4 14.5 13.1 0 7.6-6.1 13.1-14.5 13.1-8.4-0.1-14.5-5.5-14.5-13.1zm2 25.4h25v84.3h-25z"/><path class="a" d="m467 172.4l35.4-51.4h-31.4v-19.6h62.5v13.4l-35.4 51.4h36.6v19.6h-67.7z"/><path class="a" d="m167.2 191.8c-12 0.9-22.2-8.6-22-20.6 0.2-12.8 11.4-22.5 23.7-23.1 0.1 0 0.3 0 0.4 0 9.6-0.4 19.2-4 26.2-10.8 5-4.8 9.6-9.9 14.3-14.9 6-6.6 9-14.9 7.9-23.7v-0.1-0.1c-1.1-9.5-6.6-17.9-13.1-24.7-5.3-5.4-10.2-11.1-15.3-16.6-6.5-6.9-15-12.1-24.6-13.2-0.1 0-0.3 0-0.4 0-11.2-1.4-21.2-11-21.6-22.5-0.3-9 6.1-18 16-15.8 4.9 1.1 9.4 4.3 13 7.8 3.8 3.8 7.1 8.5 8.5 13.7 0.2 0.6 0.3 1.2 0.4 1.8 1.7 10 7 19.4 13.7 27 3.6 4 7.2 7.9 10.9 11.7 7.2 7.4 16.7 12.7 27 14 0.5 0.1 1.1 0.3 1.6 0.3 16.8-0.3 19.7 10.9 21.9 20.7 2.3 9.9-6.6 17-15.9 16.8-0.5 0-1.1 0-1.6-0.1-9.8-0.9-19.3 2.6-26.2 9.6-3.3 3.5-6.8 7-10.3 10.4-7.2 7-11 17.2-10.9 27.2 0 0.7 0 1.4-0.1 2.1-1.1 11.9-11.8 22.3-23.5 23.1z"/><path class="a" d="m69.3 168.3c-0.9-12.3 9.8-20.8 21.4-20.5 12.4 0.2 23.8 9.8 24.3 22.6 0 0.1 0 0.3 0 0.4 0.2 9.5 4.2 18.9 11 25.6 4.9 4.9 9.6 10 14.5 14.9 6.4 6.3 14.8 9.3 23.7 8.3h0.1 0.1c9.4-1 17.8-6.3 24.3-13.1 5.1-5.5 10.1-11.1 15.4-16.5 6.5-6.7 11.9-15 13.1-24.4 0.1-0.1 0.1-0.3 0.1-0.4 1.6-11.1 11.4-20.4 22.5-21 4.6-0.3 9.5 0.8 12.8 4.2 3 3 3.9 7.3 3 11.4-2.2 9.9-8.2 19.5-21.8 21.3-0.7 0.1-1.3 0.3-1.9 0.4-10.1 1.6-19.6 6.8-26.7 14.1-3.7 3.9-7.4 7.8-11 11.7-5.7 6.2-10.3 13.7-12.7 21.7-1.1 3.7-0.5 7.2-1.5 10.9-1.1 4-2.4 7.9-5.5 10.7-5.3 4.8-15.4 8.5-22.6 6.2-6.3-2-9.6-9-9.3-15.3 0.1-0.5 0.1-1.1 0.2-1.6 1.4-9.6-2-19-8.6-26-3.5-3.5-6.9-7.1-10.3-10.7-7.3-7.7-18.5-11.4-28.9-11.3-0.8 0-1.6 0-2.3-0.1-11.7-1.1-22.4-11.4-23.4-23.5z"/><path class="a" d="m58 35.5c-4 10.4-13.5 19.8-23.8 23.8-2 0.8-7 2.8-8.9 0.6-1.7-2 1.5-5.8 2.6-7.2 3.3-4.4 7.3-8.3 11.2-12.2 3.9-3.9 7.9-7.9 12.2-11.3 1.5-1.1 5.2-4.3 7.2-2.5 2.3 1.9 0.3 6.8-0.5 8.8z"/><path class="a" d="m232.2 52.7c1.1 1.4 4.4 5.2 2.6 7.2-1.9 2.2-6.9 0.1-8.9-0.7-10.4-4-19.8-13.6-23.8-23.9-0.8-2-2.8-6.8-0.6-8.7 2-1.7 5.8 1.5 7.2 2.6 4.4 3.3 8.3 7.3 12.2 11.2 3.9 3.9 7.9 7.9 11.3 12.3z"/><path class="a" d="m58.1 227.4c0.8 1.9 2.8 6.8 0.6 8.6-2 1.7-5.8-1.4-7.3-2.6-4.4-3.3-8.3-7.3-12.2-11.2-3.9-3.9-7.9-7.9-11.2-12.2-1.1-1.4-4.4-5.2-2.6-7.2 1.9-2.1 7 0 8.9 0.8 10.3 4.1 19.7 13.5 23.8 23.8z"/><path class="a" d="m232.2 210c-3.3 4.4-7.3 8.3-11.2 12.2-3.9 3.9-7.9 7.9-12.2 11.2-1.5 1.1-5.2 4.3-7.3 2.7-2.2-1.8-0.2-6.6 0.6-8.5 4.1-10.3 13.5-19.7 23.8-23.9 2-0.8 7-3 8.9-0.9 1.7 2-1.6 5.8-2.6 7.2z"/><path class="a" d="m117.3 241.7c0.3 9.1-6.2 17.5-16 15.4-9.7-2.2-18.9-12-21.4-21.4-0.1-0.3-0.2-0.7-0.3-1-2.2-10.2-7.8-19.6-14.7-27.2-3.4-3.6-6.8-7.2-10.2-10.7-7.5-7.6-17.2-13.1-27.7-15.3-0.2-0.1-0.4-0.2-0.7-0.2-12.7-1.9-19.4-7.3-22.1-21.3-0.8-4.1-0.1-8.4 3-11.4 3.4-3.4 8.3-4.5 12.9-4.2 0.1 0 0.3 0 0.4 0 9.6 0.9 19-2 26.2-8.5 3.6-3.3 7.1-6.7 10.5-10.1 7.4-7.4 11.3-18.2 11.8-28.5 0-0.2 0-0.3 0-0.5 0.9-12.3 11.4-23.6 23.8-24.4 12.8-0.8 22.5 10.3 22.3 22.6-0.3 13.1-11.4 23.6-24.3 23.7-0.1 0-0.3 0-0.5 0-10.7 0-21.3 3.9-28.8 11.8-3.3 3.4-6.8 6.6-10.2 9.8-6.9 6.7-10 15.7-8.7 25.1 0.1 0.1 0.1 0.3 0.1 0.4v0.1c1.3 10.1 7.2 19.1 14.2 26.2 4.3 4.3 8.3 8.8 12.4 13.2 7 7.3 16.1 13.1 26.3 14.2 0.1 0.1 0.3 0.1 0.4 0.1 10.9 1.5 21.1 10.8 21.3 22.1z"/><path class="a" d="m191 96.8c0.8 12.5-9.5 22-21.6 22-12.9 0.1-23.9-10.3-24.4-23.2 0-0.2 0-0.4 0-0.5-0.3-10-4.3-19.8-11.1-27.3-4.8-5.2-9.5-10.6-14.4-15.7-6.4-6.5-14.9-9.6-23.9-8.6h-0.1-0.1c-9.5 1.1-18 6.5-24.4 13.4-5.1 5.6-10.1 11.2-15.3 16.6-6.5 6.9-11.9 15.3-13.1 24.9-0.1 0.1-0.1 0.3-0.1 0.4-1.6 11.1-11.2 20.5-22.5 20.5-9.2-0.1-17.9-6.8-15.7-16.8 2.1-9.8 8.8-20.6 21.7-20.7 0.7 0 1.3-0.2 1.9-0.3 10.2-1.3 19.6-6.5 26.8-13.8 3.7-3.8 7.3-7.7 10.9-11.6 6.8-7.6 12.1-17.1 13.9-27.2q0.1-0.8 0.3-1.5c1.3-5.2 2.5-11.4 6.3-15.2 3.6-3.7 10.2-5.6 15.2-6.7 10-2.2 16.5 6.9 16.1 16 0 0.5 0 1.1-0.1 1.6-1.3 9.9 2.1 19.4 8.7 26.7q5.1 5.5 10.2 11.1c7.3 8 18.4 12.2 29.1 11.9 0.8 0 1.5 0 2.3 0.1 12.1 1.1 22.6 12.1 23.4 23.9z"/><path class="a" d="m164 186.8c-12 0.9-22.2-8.6-22-20.6 0.2-12.8 11.4-22.5 23.7-23.1 0.1 0 0.3 0 0.4 0 9.6-0.4 19.2-4 26.2-10.8 5-4.8 9.6-9.9 14.3-14.9 6-6.6 9-14.9 7.9-23.7v-0.1-0.1c-1.1-9.5-6.6-17.9-13.1-24.7-5.3-5.4-10.2-11.1-15.3-16.6-6.5-6.9-15-12.1-24.6-13.2-0.1 0-0.3 0-0.4 0-11.2-1.4-21.2-11-21.6-22.5-0.3-9 6.1-18 16-15.8 4.9 1.1 9.4 4.3 13 7.8 3.8 3.8 7.1 8.5 8.5 13.7 0.2 0.6 0.3 1.2 0.4 1.8 1.7 10 7 19.4 13.7 27 3.6 4 7.2 7.9 10.9 11.7 7.2 7.4 16.7 12.7 27 14 0.5 0.1 1.1 0.3 1.6 0.3 16.8-0.3 19.7 10.9 21.9 20.7 2.3 9.9-6.6 17-15.9 16.8-0.5 0-1.1 0-1.6-0.1-9.8-0.9-19.3 2.6-26.2 9.6-3.3 3.5-6.8 7-10.3 10.4-7.2 7-11 17.2-10.9 27.2 0 0.7 0 1.4-0.1 2.1-1.1 11.9-11.8 22.3-23.5 23.1z"/><path class="a" d="m66.2 163.4c-0.9-12.3 9.8-20.8 21.4-20.5 12.4 0.2 23.8 9.8 24.3 22.6 0 0.1 0 0.3 0 0.4 0.2 9.5 4.2 18.9 11 25.6 4.9 4.9 9.6 10 14.5 14.9 6.4 6.3 14.8 9.3 23.7 8.3h0.1 0.1c9.4-1 17.8-6.3 24.3-13.1 5.1-5.5 10.1-11.1 15.4-16.5 6.5-6.7 11.9-15 13.1-24.4 0.1-0.1 0.1-0.3 0.1-0.4 1.6-11.1 11.4-20.4 22.5-21 4.6-0.3 9.5 0.8 12.8 4.2 3 3 3.9 7.3 3 11.4-2.2 9.9-8.2 19.5-21.8 21.3-0.7 0.1-1.3 0.3-1.9 0.4-10.1 1.6-19.6 6.8-26.7 14.1-3.7 3.9-7.4 7.8-11 11.7-5.7 6.2-10.3 13.7-12.7 21.7-1.1 3.7-0.5 7.2-1.5 10.9-1.1 4-2.4 7.9-5.5 10.7-5.3 4.8-15.4 8.5-22.6 6.2-6.3-2-9.6-9-9.3-15.3 0.1-0.5 0.1-1.1 0.2-1.6 1.4-9.6-2-19-8.6-26-3.5-3.5-6.9-7.1-10.3-10.7-7.3-7.7-18.5-11.4-28.9-11.3-0.8 0-1.6 0-2.3-0.1-11.8-1.1-22.5-11.5-23.4-23.5z"/><path class="a" d="m54.9 30.5c-4 10.4-13.5 19.8-23.8 23.8-2 0.8-7 2.8-8.9 0.6-1.7-2 1.5-5.8 2.6-7.2 3.3-4.4 7.3-8.3 11.2-12.2 3.9-3.9 7.9-7.9 12.2-11.3 1.5-1.1 5.2-4.3 7.2-2.5 2.2 1.9 0.2 6.8-0.5 8.8z"/><path class="a" d="m229 47.7c1.1 1.4 4.4 5.2 2.6 7.2-1.9 2.2-6.9 0.1-8.9-0.7-10.4-4-19.8-13.6-23.8-23.9-0.8-2-2.8-6.8-0.6-8.7 2-1.7 5.8 1.5 7.2 2.6 4.4 3.3 8.3 7.3 12.2 11.2 4 4 8 8 11.3 12.3z"/><path class="a" d="m54.9 222.5c0.8 1.9 2.8 6.8 0.6 8.6-2 1.7-5.8-1.4-7.3-2.6-4.4-3.3-8.3-7.3-12.2-11.2-3.9-3.9-7.9-7.9-11.2-12.2-1.1-1.4-4.4-5.2-2.6-7.2 1.9-2.1 7 0 8.9 0.8 10.3 4.1 19.7 13.5 23.8 23.8z"/><path class="a" d="m229 205c-3.3 4.4-7.3 8.3-11.2 12.2-3.9 3.9-7.9 7.9-12.2 11.2-1.5 1.1-5.2 4.3-7.3 2.7-2.2-1.8-0.2-6.6 0.6-8.5 4.1-10.3 13.5-19.7 23.8-23.9 2-0.8 7-3 8.9-0.9 1.7 2-1.5 5.8-2.6 7.2z"/><path class="a" d="m114.1 236.8c0.3 9.1-6.2 17.5-16 15.4-9.7-2.2-18.9-12-21.4-21.4-0.1-0.3-0.2-0.7-0.3-1-2.2-10.2-7.8-19.6-14.7-27.2-3.4-3.6-6.8-7.2-10.2-10.7-7.5-7.6-17.2-13.1-27.7-15.3-0.2-0.1-0.4-0.2-0.7-0.2-12.7-1.9-19.4-7.3-22.1-21.3-0.8-4.1-0.1-8.4 3-11.4 3.4-3.4 8.3-4.5 12.9-4.2 0.1 0 0.3 0 0.4 0 9.6 0.9 19-2 26.2-8.5 3.6-3.3 7.1-6.7 10.5-10.1 7.4-7.4 11.3-18.2 11.8-28.5 0-0.2 0-0.3 0-0.5 0.9-12.3 11.4-23.6 23.8-24.4 12.8-0.8 22.5 10.3 22.3 22.6-0.3 13.1-11.4 23.6-24.3 23.7-0.1 0-0.3 0-0.5 0-10.7 0-21.3 3.9-28.8 11.8-3.3 3.4-6.8 6.6-10.2 9.8-6.9 6.7-10 15.7-8.7 25.1 0.1 0.1 0.1 0.3 0.1 0.4v0.1c1.3 10.1 7.2 19.1 14.2 26.2 4.3 4.3 8.3 8.8 12.4 13.2 7 7.3 16.1 13.1 26.3 14.2 0.1 0.1 0.3 0.1 0.4 0.1 10.9 1.5 21.1 10.8 21.3 22.1z"/><path class="a" d="m187.8 91.9c0.8 12.5-9.5 22-21.6 22-12.9 0.1-23.9-10.3-24.4-23.2 0-0.2 0-0.4 0-0.5-0.3-10-4.3-19.8-11.1-27.3-4.8-5.2-9.5-10.6-14.4-15.7-6.4-6.5-14.9-9.6-23.9-8.6h-0.1-0.1c-9.5 1.1-18 6.5-24.4 13.4-5.1 5.6-10.1 11.2-15.3 16.6-6.5 6.9-11.9 15.3-13.1 24.9-0.1 0.1-0.1 0.3-0.1 0.4-1.6 11.1-11.2 20.5-22.5 20.5-9.2-0.1-17.9-6.8-15.7-16.8 2.1-9.8 8.8-20.6 21.7-20.7 0.7 0 1.3-0.2 1.9-0.3 10.2-1.3 19.6-6.5 26.8-13.8 3.7-3.8 7.3-7.7 10.9-11.6 6.8-7.6 12.1-17.1 13.9-27.2q0.1-0.8 0.3-1.5c1.3-5.2 2.5-11.4 6.3-15.2 3.6-3.7 10.2-5.6 15.2-6.7 10-2.2 16.5 6.9 16.1 16 0 0.5 0 1.1-0.1 1.6-1.3 9.9 2.1 19.4 8.7 26.7q5.1 5.5 10.2 11.1c7.3 8 18.4 12.2 29.1 11.9 0.8 0 1.5 0 2.3 0.1 12.2 1 22.6 12 23.4 23.9z"/></svg>